# xmcd
#
# Track frame offsets: 
#        150
#        16132
#        30145
#        51799
#        65932
#        82835
#        99184
#        117185
#        132043
#        150666
#        166604
#        180618
#        196900
#        214879
#
# Disc length: 3108 seconds
#
# Revision: 0
# Processed by: cddbd v1.5.1PL0 Copyright (c) Steve Scherf et al.
# Submitted via: ExactAudioCopy v0.95a3
#
DISCID=a30c220e
DTITLE=Добры Молодцы - Ещё Раз Про Футбол
DYEAR=1995
DGENRE=Pop
TTITLE0=Перед Выходом На Поле
TTITLE1=Дина! Гол!
TTITLE2=Я Толстых Твой Колосков
TTITLE3=Неразделённая Любовь
TTITLE4=Досада
TTITLE5=Жена Футболиста
TTITLE6=Дина
TTITLE7=Футбол
TTITLE8=Пять На Пять
TTITLE9=Перед Выходом На Поле (Караоке)
TTITLE10=Дина! Гол! (Караоке)
TTITLE11=Жена Футболиста (Караоке)
TTITLE12=Дина (Караоке)
TTITLE13=Пять На Пять (Караоке)
EXTD=
EXTT0=
EXTT1=
EXTT2=
EXTT3=
EXTT4=
EXTT5=
EXTT6=
EXTT7=
EXTT8=
EXTT9=
EXTT10=
EXTT11=
EXTT12=
EXTT13=
PLAYORDER=
